<svg xmlns="http://www.w3.org/2000/svg" width="140" height="140" viewBox="0 0 140 140"><path fill="none" d="M0 0h140v140H0z"/><path d="M51.347 102.372c-2.424-2.577-2.425-2.59-2.685-28.75-.296-29.72-.163-30.386 6.473-32.497 2.995-.953 4.255-1.938 4.478-3.5.29-2.047.903-2.19 10.485-2.458 9.934-.277 10.184-.23 10.5 2 .24 1.684 1.405 2.626 4.437 3.586 2.66.842 4.515 2.184 5.25 3.797.758 1.662 1.137 11.287 1.137 28.813 0 25.11-.095 26.44-2.072 28.953l-2.073 2.635H70.524c-16.713 0-16.76-.005-19.177-2.578zm35.142-1.274c2.28-1.848 2.288-1.93 2.266-28.46-.025-29.29-.105-29.687-5.98-29.687-2.71 0-3.597-.508-4.354-2.5-.898-2.36-1.367-2.5-8.5-2.5-7.132 0-7.602.14-8.5 2.5-.69 1.815-1.69 2.5-3.646 2.5-1.483 0-3.52.746-4.525 1.656-1.682 1.524-1.827 3.728-1.812 27.75.008 14.352.345 26.584.75 27.18 1.84 2.718 5.303 3.356 18.373 3.385 11.82.027 13.946-.216 15.93-1.822zM55.62 98.75c-1.55-1.55-1.55-7.05 0-8.6 1.67-1.668 27.93-1.668 29.6 0 1.55 1.55 1.55 7.05 0 8.6-1.67 1.67-27.93 1.67-29.6 0zm27.218-1.406c1.872-.718 2.076-3.5.382-5.193-1.51-1.51-22.098-1.645-24.865-.164-2.205 1.18-2.487 3.013-.735 4.765 1.26 1.262 22.196 1.754 25.218.594zM56.172 84.87c-1.84-1.072-2.393-6.356-.908-8.697.612-.964 4.466-1.21 15.734-1l14.924.278.323 3.96c.485 5.947-.967 6.547-15.764 6.51-6.906-.016-13.345-.488-14.308-1.05zm27.75-4.92v-2.5l-13.173-.277c-12.465-.264-13.21-.17-13.816 1.74-1.187 3.74.138 4.106 13.815 3.817l13.172-.28v-2.5zM55.648 69.778c-1.975-1.976-1.522-7.597.71-8.79 1.062-.57 7.757-1.036 14.876-1.036 14.613 0 15.52.405 15.003 6.68l-.315 3.82-14.524.277c-10.45.198-14.87-.07-15.75-.95zm28.274-3.826v-2.5l-12.92-.28c-7.104-.155-13.336.138-13.848.65-.512.51-.626 1.888-.255 3.06.65 2.05 1.167 2.118 13.85 1.85l13.172-.28v-2.5zm-28.3-10.2c-1.637-1.636-1.516-7.29.187-8.705.94-.78 6.01-1.06 15.75-.872l14.362.278.315 3.82c.52 6.324-.32 6.68-15.737 6.68-9.305 0-14.06-.383-14.878-1.2zm27.36-2.24c1.552-1.153 1.72-1.803.834-3.25-.943-1.54-2.763-1.85-12.255-2.092-11.265-.285-15.138.55-15.138 3.27 0 2.603 3.425 3.452 14.06 3.483 7.67.023 11.09-.363 12.5-1.41z" fill="#FF6347"/></svg>
