<svg xmlns="http://www.w3.org/2000/svg" width="140" height="140" viewBox="0 0 140 140"><path fill="none" d="M0 0h140v140H0z"/><path d="M52.504 97.307l-8-4.216-.3-6.972c-.33-7.615 1.378-13.624 5.206-18.316 2.757-3.38 6.594-9.984 6.594-11.35 0-.563-1.605-3.763-3.567-7.11-3.817-6.512-4.04-10.75-.57-10.75 2.404 0 4.057 2.03 8.743 10.73l3.894 7.23-2.253 4.27C61.013 63.17 60 65.766 60 66.59c.004 1.58 7.408 6.007 10.038 6.002.843-.002 3.978-2.478 6.966-5.503 3.384-3.426 6.28-5.5 7.68-5.5 2.627 0 14.27 6.184 16.7 8.87 1.782 1.968 1.342 4.64-.905 5.502-.754.29-4.38-1.072-8.06-3.025l-6.69-3.55-5.613 5.628c-6.4 6.415-6.207 6.97 2.79 8.068 3.67.448 8.053 2.033 12.728 4.6 7.987 4.388 9.7 5.997 9.165 8.61-.57 2.784-5.487 2.04-11.796-1.782-4.73-2.864-6.696-3.412-14.045-3.91-7.896-.533-9.156-.936-16.588-5.293-4.425-2.594-8.56-4.716-9.187-4.716-1.436 0-2.556 4.245-1.773 6.714.325 1.02 3.515 3.3 7.09 5.063 6.567 3.238 7.968 5.358 5.302 8.024-1.755 1.756-2.51 1.55-11.3-3.083zm9.5.25c0-.57-2.138-1.953-4.75-3.073-7.205-3.088-8.25-4.41-8.25-10.425 0-8.454 1.342-8.698 12.25-2.23 8.668 5.14 9.783 5.527 17.73 6.165 7.073.568 9.505 1.255 14.662 4.14 10.316 5.768 11.54 4.003 1.36-1.963-3.493-2.047-8.478-3.924-12.204-4.596-8.157-1.47-10.798-2.576-10.798-4.523 0-1.642 9.243-11.987 12.055-13.492 1.107-.59 3.666.22 8.273 2.623 9.17 4.785 8.777 2.063-.427-2.95l-7.084-3.858-3.16 2.997c-7.32 6.947-10.19 9.22-11.63 9.21-2.282-.014-12.04-5.86-12.714-7.615-.322-.84.452-3.742 1.72-6.45l2.307-4.926-2.282-4.873c-2.58-5.51-6.97-11.313-7.023-9.288-.02.734 1.563 4.197 3.518 7.693 4.08 7.295 4.2 6.72-4.092 19.446-3.663 5.62-4.33 7.487-4.83 13.52-.32 3.85-.25 7.533.16 8.184.714 1.137 12.92 7.315 14.458 7.316.412 0 .75-.465.75-1.034zm-24.826-30.28c-2.85-3.032-2.753-6.2.28-9.23 3.08-3.082 6.56-3.134 9.37-.14 2.857 3.038 2.995 9.175.24 10.65-3.28 1.754-7.56 1.2-9.89-1.28zm8.254-1.257c3.02-3.02 1.283-7.43-2.928-7.43-3.992 0-6.105 4.996-3.3 7.8 1.66 1.662 4.357 1.5 6.228-.37z" fill="#FF6347"/></svg>
