<svg xmlns="http://www.w3.org/2000/svg" width="140" height="140" viewBox="0 0 140 140"><path fill="none" d="M0 0h140v140H0z"/><path d="M58.55 103.72c-9.54-3.345-8.357-9.26 2.33-11.647 2.38-.532 4.573-1.213 4.873-1.513.3-.3-2.66-8.226-6.578-17.612-3.974-9.52-7.124-18.533-7.124-20.385 0-4.483 3.934-11.65 7.85-14.3C72.1 30 89.247 39.58 87.81 53.854c-.252 2.515-3.475 11.712-7.16 20.438-3.688 8.725-6.568 15.982-6.4 16.127.165.145 2.83.99 5.92 1.876 6.31 1.81 8.186 3.467 7.708 6.803-.502 3.5-7.463 5.725-17.827 5.695-4.674-.014-9.85-.498-11.5-1.076zm21.75-2.844c2.173-.603 3.75-1.664 3.75-2.52 0-2.953-10.283-4.743-12.8-2.228-.932.934-1.465.934-2.4 0-2.527-2.528-12.8-.568-12.8 2.442 0 .726 1.24 1.593 2.75 1.927 1.514.333 3.2.756 3.75.94 2.33.776 14.297.398 17.75-.56zM77.504 73.35c7.394-17.63 8.088-20.256 6.566-24.868-1.373-4.158-6.747-9.115-10.86-10.02-4.703-1.032-10.605 1.072-14.067 5.015-5.062 5.764-4.484 10.57 3.57 29.69 3.666 8.7 7.074 15.683 7.576 15.515.5-.167 3.746-7.066 7.213-15.33zM62.155 59.394c-4.19-4.77-4.19-9.16 0-13.93 2.725-3.104 3.67-3.532 7.75-3.512 9.004.044 13.783 7.978 9.636 15.998-1.953 3.78-4.322 4.98-9.82 4.98-3.855 0-4.883-.48-7.565-3.535zm13.442-1.92c1.35-1.35 2.454-3.62 2.454-5.045 0-3.52-4.162-7.5-7.842-7.5-4.506 0-7.557 3.028-7.557 7.5 0 6.98 7.924 10.07 12.947 5.046z" fill="#FF6347"/></svg>
