<svg xmlns="http://www.w3.org/2000/svg" width="140" height="140" viewBox="0 0 140 140"><path fill="none" d="M0 0h140v140H0z"/><path d="M56.804 102.45c-10.56-4.346-16.56-10.72-20.053-21.31-3.13-9.493-1.877-21.742 3.043-29.702 3.06-4.95 10.534-11.504 15.915-13.954 9.755-3.108 20.982-3.41 29.323.455 19.45 9.118 26.018 34.5 13.624 52.652-8.546 12.516-27.318 17.835-41.85 11.857zm21.12-4.263c15.87-4.713 25.002-20.526 20.584-35.646-.924-3.16-2.118-5.75-2.652-5.75-.56 0-.99 4.133-1.014 9.75l-.04 9.75-3.76 4.157-3.762 4.155-15.273.48c-15.08.473-15.31.514-18.2 3.28-1.607 1.543-2.924 3.16-2.924 3.593 0 2.295 12.967 7.744 18.57 7.804 1.687.017 5.5-.69 8.47-1.573zM49.654 86.98c.22-.664-.523-1.19-1.687-1.19-2.078 0-2.7 1.052-1.396 2.356.927.926 2.597.294 3.084-1.167zm-4.77-14.18c0-8.91.216-10.127 2-11.24 1.1-.688 2-1.59 2-2.01 0-.417.856-1.615 1.903-2.662 1.657-1.657 3.866-1.963 17.092-2.36l15.188-.46 3.032-3.032c3.45-3.45 3.147-4.515-2.034-7.136-20.1-10.166-43.484 3.758-43.484 25.89 0 5.32 1.974 13 3.34 13 .55 0 .96-4.263.96-9.99zm34.688 8.99h6.396l-.292-7.59-.293-7.592-4.684-.293c-5.813-.362-8.75 2.16-8.6 7.39.1 3.537-3.383 7.72-5.394 6.477-.533-.33-.036-1.253 1.104-2.052 1.9-1.33 2.91-4.34 1.456-4.34-.89 0-8.383 7.62-8.383 8.526 0 .418 2.766.47 6.147.118 3.38-.353 9.025-.643 12.542-.643zm-19.986-4.195c2.017-1.955 3.303-4.188 3.313-5.75.022-3.885 1.4-5.417 4.236-4.705 1.788.45 2.987.032 4.357-1.513l1.89-2.132-7.9.648c-4.346.357-10.103.648-12.794.648h-4.894l.294 7.25.293 7.25 3.5.62c1.925.34 3.704.677 3.953.75.25.072 1.936-1.307 3.75-3.065zm7.297-7.304c.695-.835.803-1.5.245-1.5-.55 0-1.56.676-2.245 1.5-.694.838-.802 1.5-.244 1.5.55 0 1.56-.674 2.243-1.5zm26.75-17.75c-.23-.686-1.016-1.25-1.75-1.25-.733 0-1.52.564-1.75 1.25-.247.745.462 1.25 1.75 1.25 1.29 0 1.998-.505 1.75-1.25z" fill="#FF6347"/></svg>
