<svg xmlns="http://www.w3.org/2000/svg" width="140" height="140" viewBox="0 0 140 140"><path fill="none" d="M0 0h140v140H0z"/><path d="M52.645 103.186c-1.466-1.62-1.655-5.422-1.655-33.345 0-29.262.13-31.634 1.83-33.17 1.55-1.405 4.42-1.655 18.926-1.655h17.1l2.112 2.686c2.06 2.622 2.106 3.43 1.822 33.46-.277 29.42-.378 30.837-2.29 32.28-1.598 1.208-5.434 1.517-19.095 1.543-15.315.028-17.267-.16-18.75-1.797zm35.287-2.602c.653-.786 1.046-3.15.873-5.25l-.315-3.82h-34l-.314 3.82c-.528 6.412.17 6.68 17.314 6.68 12.01 0 15.508-.304 16.442-1.43zM67.47 98.982c-1.14-1.845 1.01-3.138 4.643-2.79 4.785.457 4.57 3.223-.28 3.627-2.01.167-3.975-.21-4.363-.838zm21.02-28.967v-16.5h-34l-.277 15.458c-.152 8.502-.05 16.05.228 16.774.397 1.03 4.136 1.257 17.278 1.042l16.772-.275v-16.5zm.315-25.32c.526-6.388-.213-6.68-16.866-6.68-12.128 0-15.09.284-16.378 1.57-1.578 1.58-2.172 7.496-.882 8.786.38.38 8.142.568 17.25.418l16.56-.273.315-3.82zm-18.815-2.18c0-.825.675-1.5 1.5-1.5s1.5.675 1.5 1.5-.675 1.5-1.5 1.5-1.5-.675-1.5-1.5zm28.75 15.383c-4.242-4.43-4.663-5.883-1.704-5.883 2.613 0 6.954 4.304 6.954 6.895 0 3.337-1.333 3.08-5.25-1.012zm19.917 3.45c-.367-.367-.677-1.83-.69-3.25-.066-7.962-8.62-17.244-17.605-19.11-3.47-.72-5.372-1.62-5.372-2.544 0-1.827 3.345-1.832 9.386-.014 6.713 2.02 11.077 5.756 14.038 12.016 3.332 7.042 3.503 16.162.243 12.902zm-9.292-2.083c-2.477-7.71-5.012-10.573-10.41-11.758-3.38-.743-4.645-2.213-3.17-3.687 1.47-1.47 8.058.844 11.578 4.065 4.778 4.373 7.51 13.13 4.096 13.13-.843 0-1.786-.788-2.095-1.75z" fill="#FF6347"/></svg>
