<svg xmlns="http://www.w3.org/2000/svg" width="140" height="140" viewBox="0 0 140 140"><path fill="none" d="M0 0h140v140H0z"/><path d="M7.88 103.357c-.357-.926.554-5.025 2.022-9.108 1.47-4.084 2.422-7.826 2.12-8.316-.304-.49-2.235-.892-4.293-.892-2.06 0-4.282-.54-4.942-1.2-1.702-1.702-1.702-45.898 0-47.6 1.712-1.712 56.888-1.712 58.6 0 1.702 1.702 1.702 45.898 0 47.6-.776.776-4.797 1.2-11.388 1.2H39.812l-6.362 4.456c-15.44 10.814-22.668 15.544-23.755 15.544-.644 0-1.46-.758-1.816-1.685zm18.353-12.994l10.85-7.82 11.003-.5 11.002-.5v-43l-26.43-.268c-20.48-.207-26.612.018-27.235 1-1.355 2.135-1.02 40.18.365 41.567.66.66 3.105 1.2 5.433 1.2 5.43 0 6.044 1.723 3.377 9.473-3.355 9.753-3.516 9.77 11.636-1.152zM13.255 74.375c-.367-.366-.667-1.49-.667-2.5 0-1.7 1.137-1.833 15.53-1.833 13.32 0 15.62.228 16.147 1.6.338.88-.014 2-.78 2.486-1.614 1.02-29.23 1.247-30.23.247zm1.025-8.034c-1.184-.305-1.702-1.215-1.5-2.633.304-2.138.56-2.165 20.308-2.165 19.615 0 20.006.04 20.302 2.12.215 1.505-.364 2.298-2 2.736-2.627.704-34.363.655-37.11-.057zm-1.005-8.944c-1.253-1.254-.71-4.13.895-4.747 2.07-.795 34.236-.763 37.22.036 1.636.438 2.215 1.23 2 2.736-.294 2.067-.795 2.127-19.865 2.39-10.76.15-19.872-.038-20.25-.416zm-.343-9.9c-.335-.874-.18-2.018.345-2.543.56-.56 8.982-.843 20.383-.683 18.67.26 19.428.35 19.428 2.272 0 1.923-.757 2.01-19.773 2.27-17.305.24-19.85.074-20.383-1.316zm88.564 55.656c-6.508-2.546-12.467-6.902-19.493-14.248-7.563-7.907-10.823-13.018-12.934-20.28-2.51-8.633-1.407-12.914 4.985-19.332 3.3-3.312 6.082-5.25 7.54-5.25 2.692 0 13.993 10.747 13.993 13.307 0 .893-2.025 3.905-4.5 6.692-2.475 2.787-4.5 5.64-4.5 6.338 0 4.56 11.706 16.662 16.117 16.662 1 0 4.096-2.025 6.883-4.5s5.754-4.5 6.593-4.5c2.206 0 12.344 9.896 13.06 12.748.483 1.925-.28 3.325-3.773 6.913-2.41 2.475-5.594 5.138-7.08 5.92-3.66 1.924-11.315 1.71-16.89-.47zm17.693-4.048c2.196-1.615 4.617-4.102 5.38-5.526 1.316-2.46 1.17-2.806-3.007-7.062-2.415-2.46-4.91-4.474-5.542-4.474-.632 0-3.195 1.8-5.695 4-3.135 2.76-5.47 4-7.53 4-6.974 0-19.207-12.504-19.207-19.632 0-2.592.962-4.457 4-7.752 2.2-2.387 4-4.758 4-5.27 0-1.557-8.467-9.346-10.16-9.346-.872 0-3.443 2.015-5.713 4.478-3.675 3.987-4.127 5.02-4.127 9.417 0 10.9 9.512 24.303 24.885 35.064 8.27 5.79 16.65 6.565 22.716 2.104zm-9.042-30.573c-1.01-2.418-2.543-4.033-4.542-4.787-3.87-1.46-4.158-4.7-.418-4.7 3.793 0 9.636 6.11 9.22 9.64-.478 4.045-2.537 3.97-4.26-.152zm25.063 1.973c-.342-.894-.622-2.696-.622-4.005 0-1.31-.927-4.86-2.06-7.89-3.715-9.927-13.815-17.786-24.732-19.245-2.59-.346-5.016-1.1-5.392-1.677-3.374-5.17 13.472-2.178 22.358 3.973 8.005 5.54 14.466 17.984 13.658 26.305-.36 3.704-2.202 5.16-3.21 2.538zm-12.043-.71c-3.06-10.672-8.406-17.087-15.27-18.325-6.776-1.222-8.24-4.447-2-4.404 9.75.067 20.603 10.95 20.67 20.728.014 2.26-.445 3.25-1.51 3.25-.843 0-1.693-.562-1.89-1.25z" fill="#FF6347"/></svg>
