<svg xmlns="http://www.w3.org/2000/svg" width="140" height="140" viewBox="0 0 140 140"><path fill="none" d="M0 0h140v140H0z"/><path d="M64.726 97.97c-3.343-2.63-4.277-6.994-2.312-10.795 1.747-3.377 3.35-4.194 8.228-4.194 8.3 0 11.276 10.486 4.46 15.72-2.432 1.866-7.53 1.507-10.376-.73zm8.066-2.546c3.8-2.66 1.99-9.443-2.52-9.443-2.42 0-5.257 3.023-5.257 5.6 0 1.942 3.202 5.4 5 5.4.305 0 1.555-.7 2.777-1.556zM55.055 80.53c-1.843-2.22-.906-4.537 3.17-7.834 6.514-5.268 18.074-5.038 24.363.484 6.704 5.886 2.412 11.78-4.82 6.62-4.374-3.118-11.09-3.15-15.408-.07-3.663 2.614-5.622 2.828-7.305.8zm-10.04-10.55c-1.99-3.716 2.23-8.364 11.503-12.667 5.03-2.334 7.286-2.775 13.997-2.734 9.362.055 14.988 2.137 21.372 7.905 4.22 3.813 5.053 6.17 2.928 8.296-1.87 1.872-3.702 1.447-7.818-1.813-5.375-4.257-10.083-5.986-16.3-5.986-6.772 0-10.944 1.402-16.816 5.65-5.33 3.855-7.36 4.164-8.865 1.35zm-8.8-9.2c-2.114-2.113-1.3-4.705 2.702-8.588 13.22-12.828 35.006-15.83 52.098-7.176 11.016 5.578 16.38 12.184 12.8 15.765-1.886 1.886-3.3 1.46-7.895-2.378-15.54-12.984-37.298-13-51.646-.036-4.226 3.817-6.096 4.378-8.06 2.415z" fill="#FF6347"/></svg>
